# xmcd
#
# Track frame offsets:
#	150
#	112160
#	155270
#	181157
#	197635
#	265165
#
# Disc length: 3892 seconds
#
# Revision: 0
# Processed by: cddbd v1.4PL0 Copyright (c) Steve Scherf et al.
# Submitted via: dBpowerAMP V4.0
#
DISCID=4a0f3206
DTITLE=James Brown - 4
DYEAR=1900
DGENRE=Funk
TTITLE0=It's a Man's World - Super Bad - Disco Rap
TTITLE1=Turn it Loose - It's too funky in Here
TTITLE2=Gonna Have a Funky Good Time (Doing it to Death) - Try Me
TTITLE3=I got the Feeling
TTITLE4=Get on the Good Foot - Prisoner of Love - Get up offa That Thing
TTITLE5=Georgia on my Mind
EXTD=
EXTT0=
EXTT1=
EXTT2=
EXTT3=
EXTT4=
EXTT5=
PLAYORDER=
